<?xml version="1.0" standalone="no"?>
<!DOCTYPE svg PUBLIC "-//W3C//DTD SVG 20010904//EN"
 "http://www.w3.org/TR/2001/REC-SVG-20010904/DTD/svg10.dtd">
<svg version="1.0" xmlns="http://www.w3.org/2000/svg"
 width="512.000000pt" height="512.000000pt" viewBox="0 0 512.000000 512.000000"
 preserveAspectRatio="xMidYMid meet">
<metadata>
Created by potrace 1.14, written by Peter Selinger 2001-2017
</metadata>
<g transform="translate(0.000000,512.000000) scale(0.100000,-0.100000)"
fill="#000000" stroke="none">
<path d="M889 5116 c-2 -2 -23 -6 -46 -10 -167 -22 -348 -106 -492 -227 -167
-141 -284 -339 -330 -561 -19 -90 -19 -144 -19 -1758 0 -1609 0 -1668 19
-1758 75 -356 326 -639 671 -752 35 -11 74 -23 88 -25 14 -3 48 -9 75 -14 31
-6 673 -10 1705 -10 1409 0 1666 2 1730 14 215 42 382 129 530 275 152 150
244 325 287 545 4 22 8 805 8 1740 l0 1700 -23 80 c-27 96 -57 174 -90 235
-146 266 -383 443 -682 509 -94 20 -113 20 -1761 21 -916 0 -1668 -2 -1670 -4z
m1088 -1642 c59 -28 99 -71 136 -147 14 -29 136 -302 272 -607 313 -702 299
-670 311 -700 11 -24 11 -24 24 15 28 88 22 79 429 580 35 44 76 94 90 111 14
17 33 40 41 50 8 11 36 44 61 74 25 30 57 71 72 90 l26 35 -238 1 -238 0 -56
28 c-67 32 -111 82 -133 149 -41 125 22 266 144 318 45 20 67 21 482 21 426 0
436 -1 495 -22 101 -38 156 -86 202 -179 45 -91 36 -223 -21 -306 -20 -29
-256 -325 -267 -335 -3 -3 -64 -77 -135 -164 -215 -265 -274 -339 -274 -341 0
-2 112 -3 249 -3 136 0 263 -3 282 -7 54 -12 103 -41 139 -81 42 -48 60 -93
64 -156 7 -111 -49 -202 -154 -251 -43 -20 -60 -21 -499 -22 -467 0 -505 2
-588 41 -45 22 -129 106 -147 146 -12 29 -14 31 -21 13 -34 -99 -79 -150 -160
-186 -134 -59 -301 3 -365 135 -10 23 -34 77 -52 121 l-34 80 -258 1 -258 1
-9 -26 c-33 -85 -92 -210 -112 -232 -99 -112 -256 -135 -378 -54 -100 66 -136
178 -99 310 4 17 118 278 253 580 134 303 253 568 262 590 103 231 143 293
214 329 76 40 166 39 248 0z"/>
<path d="M1813 3396 c-58 -15 -100 -57 -135 -135 -17 -36 -39 -86 -50 -111
-12 -25 -44 -99 -73 -165 -29 -66 -69 -155 -89 -198 -20 -43 -36 -80 -36 -82
0 -2 -20 -46 -45 -99 -25 -53 -45 -99 -45 -101 0 -2 -13 -32 -29 -67 -16 -35
-54 -121 -86 -193 -32 -71 -70 -157 -85 -190 -62 -139 -69 -185 -39 -247 41
-82 163 -119 239 -71 57 36 79 69 135 202 l57 138 324 0 323 0 61 -142 c63
-145 90 -184 145 -205 42 -16 118 -14 154 4 71 37 109 136 81 208 -17 43 -292
662 -336 756 -19 41 -34 75 -34 77 0 2 -13 32 -29 67 -16 35 -68 151 -116 258
-47 107 -97 211 -110 231 -38 59 -110 84 -182 65z m147 -803 c54 -126 96 -230
94 -232 -5 -6 -385 -3 -391 3 -3 3 33 97 80 208 47 112 91 216 97 232 6 16 13
26 17 23 3 -4 50 -109 103 -234z"/>
<path d="M1831 2524 c-13 -30 -21 -57 -18 -60 2 -3 25 -4 49 -2 l45 3 -26 57
-26 57 -24 -55z"/>
<path d="M3025 3390 c-76 -7 -120 -33 -146 -88 -39 -80 -8 -171 70 -208 32
-16 75 -18 369 -18 182 0 332 -1 332 -2 0 -2 -327 -405 -404 -499 -52 -62
-337 -415 -375 -463 -103 -131 -63 -297 88 -365 44 -19 67 -20 491 -22 447 -1
480 1 526 35 69 51 77 165 16 234 -40 44 -63 47 -443 47 -197 0 -359 2 -359 5
0 2 7 12 15 21 8 10 36 45 62 78 27 33 58 71 70 85 12 14 76 93 143 175 67 83
129 159 138 170 10 11 64 79 122 150 58 72 107 132 110 135 3 3 25 30 50 60
25 30 53 64 63 74 64 72 80 187 37 266 -30 53 -96 105 -153 121 -43 11 -705
19 -822 9z"/>
</g>
</svg>
